<mxfile host="app.diagrams.net" modified="2022-11-19T05:11:54.311Z" agent="5.0 (Windows NT 10.0; WOW64) AppleWebKit/537.36 (KHTML, like Gecko) Chrome/80.0.3987.87 Safari/537.36 SE 2.X MetaSr 1.0" etag="bmjh1dxGUlTSNyTt4_Q3" version="20.5.3" type="github">
  <diagram id="C5RBs43oDa-KdzZeNtuy" name="Page-1">
    <mxGraphModel dx="1095" dy="631" grid="1" gridSize="10" guides="1" tooltips="1" connect="1" arrows="1" fold="1" page="1" pageScale="1" pageWidth="827" pageHeight="1169" math="0" shadow="0">
      <root>
        <mxCell id="WIyWlLk6GJQsqaUBKTNV-0" />
        <mxCell id="WIyWlLk6GJQsqaUBKTNV-1" parent="WIyWlLk6GJQsqaUBKTNV-0" />
        <mxCell id="ETs4q4Kw1hkocGIjMl85-0" value="插件执行" style="swimlane;" vertex="1" parent="WIyWlLk6GJQsqaUBKTNV-1">
          <mxGeometry x="510" y="40" width="250" height="540" as="geometry">
            <mxRectangle x="510" y="40" width="80" height="23" as="alternateBounds" />
          </mxGeometry>
        </mxCell>
        <mxCell id="ETs4q4Kw1hkocGIjMl85-1" value="执行结果推送至kafka供下游使用" style="rounded=1;whiteSpace=wrap;html=1;fontSize=12;glass=0;strokeWidth=1;shadow=0;" vertex="1" parent="ETs4q4Kw1hkocGIjMl85-0">
          <mxGeometry x="60" y="290" width="120" height="40" as="geometry" />
        </mxCell>
        <mxCell id="ETs4q4Kw1hkocGIjMl85-2" value="接收插件执行&lt;br&gt;kafka消息" style="rounded=1;whiteSpace=wrap;html=1;fontSize=12;glass=0;strokeWidth=1;shadow=0;" vertex="1" parent="ETs4q4Kw1hkocGIjMl85-0">
          <mxGeometry x="60" y="28" width="120" height="40" as="geometry" />
        </mxCell>
        <mxCell id="ETs4q4Kw1hkocGIjMl85-3" value="&lt;span&gt;通过topic中modelName查找绑定的插件信息&lt;/span&gt;" style="rounded=1;whiteSpace=wrap;html=1;fontSize=12;glass=0;strokeWidth=1;shadow=0;" vertex="1" parent="ETs4q4Kw1hkocGIjMl85-0">
          <mxGeometry x="60" y="118" width="120" height="40" as="geometry" />
        </mxCell>
        <mxCell id="ETs4q4Kw1hkocGIjMl85-4" value="" style="edgeStyle=orthogonalEdgeStyle;rounded=0;orthogonalLoop=1;jettySize=auto;html=1;" edge="1" parent="ETs4q4Kw1hkocGIjMl85-0" source="ETs4q4Kw1hkocGIjMl85-2" target="ETs4q4Kw1hkocGIjMl85-3">
          <mxGeometry relative="1" as="geometry" />
        </mxCell>
        <mxCell id="ETs4q4Kw1hkocGIjMl85-5" value="" style="edgeStyle=orthogonalEdgeStyle;rounded=0;orthogonalLoop=1;jettySize=auto;html=1;" edge="1" parent="ETs4q4Kw1hkocGIjMl85-0" source="ETs4q4Kw1hkocGIjMl85-6" target="ETs4q4Kw1hkocGIjMl85-1">
          <mxGeometry relative="1" as="geometry" />
        </mxCell>
        <mxCell id="ETs4q4Kw1hkocGIjMl85-6" value="通过反射等方式执行插件方法" style="rounded=1;whiteSpace=wrap;html=1;fontSize=12;glass=0;strokeWidth=1;shadow=0;" vertex="1" parent="ETs4q4Kw1hkocGIjMl85-0">
          <mxGeometry x="60" y="208" width="120" height="40" as="geometry" />
        </mxCell>
        <mxCell id="ETs4q4Kw1hkocGIjMl85-7" value="" style="edgeStyle=orthogonalEdgeStyle;rounded=0;orthogonalLoop=1;jettySize=auto;html=1;" edge="1" parent="ETs4q4Kw1hkocGIjMl85-0" source="ETs4q4Kw1hkocGIjMl85-3" target="ETs4q4Kw1hkocGIjMl85-6">
          <mxGeometry relative="1" as="geometry" />
        </mxCell>
        <mxCell id="ETs4q4Kw1hkocGIjMl85-8" value="插件配置" style="swimlane;" vertex="1" parent="WIyWlLk6GJQsqaUBKTNV-1">
          <mxGeometry x="30" y="40" width="430" height="540" as="geometry" />
        </mxCell>
        <mxCell id="ETs4q4Kw1hkocGIjMl85-9" value="" style="rounded=0;whiteSpace=wrap;html=1;" vertex="1" parent="ETs4q4Kw1hkocGIjMl85-8">
          <mxGeometry x="139" y="30" width="120" height="90" as="geometry" />
        </mxCell>
        <mxCell id="ETs4q4Kw1hkocGIjMl85-10" value="插件信息配置" style="rounded=1;whiteSpace=wrap;html=1;fontSize=12;glass=0;strokeWidth=1;shadow=0;" vertex="1" parent="ETs4q4Kw1hkocGIjMl85-8">
          <mxGeometry x="10" y="183" width="120" height="40" as="geometry" />
        </mxCell>
        <mxCell id="ETs4q4Kw1hkocGIjMl85-11" value="插件名称pluginName：唯一，不可重复&lt;br&gt;执行方法名methodName：如com.a.b.test()" style="text;html=1;resizable=0;autosize=1;align=center;verticalAlign=middle;points=[];fillColor=none;strokeColor=none;rounded=0;" vertex="1" parent="ETs4q4Kw1hkocGIjMl85-8">
          <mxGeometry x="139" y="188" width="250" height="30" as="geometry" />
        </mxCell>
        <mxCell id="ETs4q4Kw1hkocGIjMl85-12" value="插件配置信息加载到redis和当前节点本地map" style="rounded=1;whiteSpace=wrap;html=1;fontSize=12;glass=0;strokeWidth=1;shadow=0;" vertex="1" parent="ETs4q4Kw1hkocGIjMl85-8">
          <mxGeometry x="10" y="340" width="120" height="40" as="geometry" />
        </mxCell>
        <mxCell id="ETs4q4Kw1hkocGIjMl85-13" value="redis发布订阅通知其它插件执行器节点更新配置" style="rounded=1;whiteSpace=wrap;html=1;fontSize=12;glass=0;strokeWidth=1;shadow=0;" vertex="1" parent="ETs4q4Kw1hkocGIjMl85-8">
          <mxGeometry x="10" y="430" width="120" height="50" as="geometry" />
        </mxCell>
        <mxCell id="ETs4q4Kw1hkocGIjMl85-14" value="" style="edgeStyle=orthogonalEdgeStyle;rounded=0;orthogonalLoop=1;jettySize=auto;html=1;" edge="1" parent="ETs4q4Kw1hkocGIjMl85-8" source="ETs4q4Kw1hkocGIjMl85-12" target="ETs4q4Kw1hkocGIjMl85-13">
          <mxGeometry relative="1" as="geometry" />
        </mxCell>
        <mxCell id="ETs4q4Kw1hkocGIjMl85-15" value="" style="edgeStyle=orthogonalEdgeStyle;rounded=0;orthogonalLoop=1;jettySize=auto;html=1;" edge="1" parent="ETs4q4Kw1hkocGIjMl85-8" source="ETs4q4Kw1hkocGIjMl85-16" target="ETs4q4Kw1hkocGIjMl85-12">
          <mxGeometry relative="1" as="geometry" />
        </mxCell>
        <mxCell id="ETs4q4Kw1hkocGIjMl85-16" value="模型和插件关联关系配置" style="rounded=1;whiteSpace=wrap;html=1;fontSize=12;glass=0;strokeWidth=1;shadow=0;" vertex="1" parent="ETs4q4Kw1hkocGIjMl85-8">
          <mxGeometry x="10" y="260" width="120" height="40" as="geometry" />
        </mxCell>
        <mxCell id="ETs4q4Kw1hkocGIjMl85-17" value="" style="edgeStyle=orthogonalEdgeStyle;rounded=0;orthogonalLoop=1;jettySize=auto;html=1;" edge="1" parent="ETs4q4Kw1hkocGIjMl85-8" source="ETs4q4Kw1hkocGIjMl85-10" target="ETs4q4Kw1hkocGIjMl85-16">
          <mxGeometry relative="1" as="geometry" />
        </mxCell>
        <mxCell id="ETs4q4Kw1hkocGIjMl85-18" value="节点2" style="rounded=1;whiteSpace=wrap;html=1;fontSize=12;glass=0;strokeWidth=1;shadow=0;" vertex="1" parent="ETs4q4Kw1hkocGIjMl85-8">
          <mxGeometry x="220" y="400" width="60" height="20" as="geometry" />
        </mxCell>
        <mxCell id="ETs4q4Kw1hkocGIjMl85-19" style="edgeStyle=orthogonalEdgeStyle;rounded=0;orthogonalLoop=1;jettySize=auto;html=1;exitX=1;exitY=0.5;exitDx=0;exitDy=0;entryX=0;entryY=0.5;entryDx=0;entryDy=0;" edge="1" parent="ETs4q4Kw1hkocGIjMl85-8" source="ETs4q4Kw1hkocGIjMl85-13" target="ETs4q4Kw1hkocGIjMl85-18">
          <mxGeometry relative="1" as="geometry" />
        </mxCell>
        <mxCell id="ETs4q4Kw1hkocGIjMl85-20" value="节点3" style="rounded=1;whiteSpace=wrap;html=1;fontSize=12;glass=0;strokeWidth=1;shadow=0;" vertex="1" parent="ETs4q4Kw1hkocGIjMl85-8">
          <mxGeometry x="220" y="430" width="60" height="20" as="geometry" />
        </mxCell>
        <mxCell id="ETs4q4Kw1hkocGIjMl85-21" style="edgeStyle=orthogonalEdgeStyle;rounded=0;orthogonalLoop=1;jettySize=auto;html=1;entryX=0;entryY=0.5;entryDx=0;entryDy=0;" edge="1" parent="ETs4q4Kw1hkocGIjMl85-8" source="ETs4q4Kw1hkocGIjMl85-13" target="ETs4q4Kw1hkocGIjMl85-20">
          <mxGeometry relative="1" as="geometry" />
        </mxCell>
        <mxCell id="ETs4q4Kw1hkocGIjMl85-22" value="节点4" style="rounded=1;whiteSpace=wrap;html=1;fontSize=12;glass=0;strokeWidth=1;shadow=0;" vertex="1" parent="ETs4q4Kw1hkocGIjMl85-8">
          <mxGeometry x="220" y="460" width="60" height="20" as="geometry" />
        </mxCell>
        <mxCell id="ETs4q4Kw1hkocGIjMl85-23" style="edgeStyle=orthogonalEdgeStyle;rounded=0;orthogonalLoop=1;jettySize=auto;html=1;entryX=0;entryY=0.5;entryDx=0;entryDy=0;" edge="1" parent="ETs4q4Kw1hkocGIjMl85-8" source="ETs4q4Kw1hkocGIjMl85-13" target="ETs4q4Kw1hkocGIjMl85-22">
          <mxGeometry relative="1" as="geometry" />
        </mxCell>
        <mxCell id="ETs4q4Kw1hkocGIjMl85-24" value="节点n" style="rounded=1;whiteSpace=wrap;html=1;fontSize=12;glass=0;strokeWidth=1;shadow=0;" vertex="1" parent="ETs4q4Kw1hkocGIjMl85-8">
          <mxGeometry x="220" y="490" width="60" height="20" as="geometry" />
        </mxCell>
        <mxCell id="ETs4q4Kw1hkocGIjMl85-25" style="edgeStyle=orthogonalEdgeStyle;rounded=0;orthogonalLoop=1;jettySize=auto;html=1;entryX=0;entryY=0.5;entryDx=0;entryDy=0;" edge="1" parent="ETs4q4Kw1hkocGIjMl85-8" source="ETs4q4Kw1hkocGIjMl85-13" target="ETs4q4Kw1hkocGIjMl85-24">
          <mxGeometry relative="1" as="geometry" />
        </mxCell>
        <mxCell id="ETs4q4Kw1hkocGIjMl85-26" value="收到redis消息&lt;br&gt;更新本地map" style="text;html=1;resizable=0;autosize=1;align=center;verticalAlign=middle;points=[];fillColor=none;strokeColor=none;rounded=0;" vertex="1" parent="ETs4q4Kw1hkocGIjMl85-8">
          <mxGeometry x="290" y="430" width="90" height="30" as="geometry" />
        </mxCell>
        <mxCell id="ETs4q4Kw1hkocGIjMl85-27" value="" style="edgeStyle=orthogonalEdgeStyle;rounded=0;orthogonalLoop=1;jettySize=auto;html=1;" edge="1" parent="ETs4q4Kw1hkocGIjMl85-8" source="ETs4q4Kw1hkocGIjMl85-28" target="ETs4q4Kw1hkocGIjMl85-10">
          <mxGeometry relative="1" as="geometry" />
        </mxCell>
        <mxCell id="ETs4q4Kw1hkocGIjMl85-28" value="插件以jar或其它形式放到插件执行器项目中一起发布" style="rounded=1;whiteSpace=wrap;html=1;fontSize=12;glass=0;strokeWidth=1;shadow=0;" vertex="1" parent="ETs4q4Kw1hkocGIjMl85-8">
          <mxGeometry x="10" y="40" width="120" height="50" as="geometry" />
        </mxCell>
        <mxCell id="ETs4q4Kw1hkocGIjMl85-29" value="插件1" style="rounded=1;whiteSpace=wrap;html=1;fontSize=12;glass=0;strokeWidth=1;shadow=0;" vertex="1" parent="ETs4q4Kw1hkocGIjMl85-8">
          <mxGeometry x="189" y="35" width="60" height="20" as="geometry" />
        </mxCell>
        <mxCell id="ETs4q4Kw1hkocGIjMl85-30" value="插件2" style="rounded=1;whiteSpace=wrap;html=1;fontSize=12;glass=0;strokeWidth=1;shadow=0;" vertex="1" parent="ETs4q4Kw1hkocGIjMl85-8">
          <mxGeometry x="189" y="55" width="60" height="20" as="geometry" />
        </mxCell>
        <mxCell id="ETs4q4Kw1hkocGIjMl85-31" value="插件3" style="rounded=1;whiteSpace=wrap;html=1;fontSize=12;glass=0;strokeWidth=1;shadow=0;" vertex="1" parent="ETs4q4Kw1hkocGIjMl85-8">
          <mxGeometry x="189" y="75" width="60" height="20" as="geometry" />
        </mxCell>
        <mxCell id="ETs4q4Kw1hkocGIjMl85-32" value="插件n..." style="rounded=1;whiteSpace=wrap;html=1;fontSize=12;glass=0;strokeWidth=1;shadow=0;" vertex="1" parent="ETs4q4Kw1hkocGIjMl85-8">
          <mxGeometry x="189" y="95" width="60" height="20" as="geometry" />
        </mxCell>
        <mxCell id="ETs4q4Kw1hkocGIjMl85-33" value="插件执行器" style="rounded=0;whiteSpace=wrap;html=1;" vertex="1" parent="ETs4q4Kw1hkocGIjMl85-8">
          <mxGeometry x="159" y="50" width="30" height="55" as="geometry" />
        </mxCell>
        <mxCell id="ETs4q4Kw1hkocGIjMl85-34" value="一个对象可绑定多个插件，&lt;br&gt;可设置绑定顺序，按绑定顺序执行" style="text;html=1;resizable=0;autosize=1;align=center;verticalAlign=middle;points=[];fillColor=none;strokeColor=none;rounded=0;" vertex="1" parent="ETs4q4Kw1hkocGIjMl85-8">
          <mxGeometry x="139" y="265" width="200" height="30" as="geometry" />
        </mxCell>
      </root>
    </mxGraphModel>
  </diagram>
</mxfile>
